<svg width="26" height="27" viewBox="0 0 26 27" fill="none" xmlns="http://www.w3.org/2000/svg">
<path d="M4.93845 5.84396H21.8456C23.4406 5.84396 24.2445 6.59681 24.2445 8.12802V18.872C24.2445 20.3905 23.4406 21.1561 21.8456 21.1561H4.93845C3.34344 21.1561 2.53955 20.3905 2.53955 18.872V8.12802C2.53955 6.59681 3.34344 5.84396 4.93845 5.84396ZM13.3856 16.8176L21.9859 9.76131C22.2922 9.50611 22.5346 8.91914 22.1518 8.39598C21.7818 7.87282 21.1055 7.86006 20.6589 8.17906L13.3856 13.1045L6.12513 8.17906C5.67853 7.86006 5.00225 7.87282 4.6322 8.39598C4.2494 8.91914 4.49184 9.50611 4.79809 9.76131L13.3856 16.8176Z" fill="black"/>
</svg>
