<svg width="20" height="21" viewBox="0 0 20 21" fill="none" xmlns="http://www.w3.org/2000/svg">
<path d="M3.87023 4.5H17.1202C18.3702 4.5 19.0002 5.09 19.0002 6.29V14.71C19.0002 15.9 18.3702 16.5 17.1202 16.5H3.87023C2.62023 16.5 1.99023 15.9 1.99023 14.71V6.29C1.99023 5.09 2.62023 4.5 3.87023 4.5ZM10.4902 13.1L17.2302 7.57C17.4702 7.37 17.6602 6.91 17.3602 6.5C17.0702 6.09 16.5402 6.08 16.1902 6.33L10.4902 10.19L4.80023 6.33C4.45023 6.08 3.92023 6.09 3.63023 6.5C3.33023 6.91 3.52023 7.37 3.76023 7.57L10.4902 13.1Z" fill="#515151"/>
</svg>
