<svg width="20" height="20" viewBox="0 0 20 20" fill="none" xmlns="http://www.w3.org/2000/svg">
<path d="M6.98694 2.06598C7.42452 1.93404 7.89409 1.95596 8.31748 2.12808C8.74087 2.30021 9.09254 2.61215 9.31394 3.01198L9.38794 3.16098L10.0499 4.63198C10.2505 5.07854 10.3155 5.57415 10.2369 6.05732C10.1583 6.54049 9.93962 6.98996 9.60794 7.34998L9.47494 7.48198L8.43194 8.45498C8.24394 8.63298 8.38494 9.32198 9.06494 10.5C9.67694 11.56 10.1749 12.055 10.4199 12.082H10.4629L10.5159 12.072L12.5659 11.445C12.8415 11.3605 13.1355 11.3571 13.4128 11.4353C13.6902 11.5136 13.9392 11.67 14.1299 11.886L14.2209 12.001L15.5779 13.881C15.8439 14.2495 15.9764 14.6975 15.9537 15.1514C15.931 15.6053 15.7544 16.0379 15.4529 16.378L15.3309 16.504L14.7889 17.018C14.3022 17.4789 13.6934 17.7904 13.0348 17.9153C12.3763 18.0403 11.6957 17.9736 11.0739 17.723C9.13894 16.943 7.38094 15.161 5.78394 12.395C4.18394 9.62198 3.51894 7.20498 3.81594 5.13498C3.90581 4.50924 4.16348 3.91953 4.56157 3.42847C4.95967 2.93741 5.48333 2.56334 6.07694 2.34598L6.26994 2.28198L6.98694 2.06598Z" fill="#515151"/>
</svg>
