<svg width="26" height="27" viewBox="0 0 26 27" fill="none" xmlns="http://www.w3.org/2000/svg">
<path d="M8.91535 3.37619C9.47371 3.20784 10.0729 3.23581 10.6131 3.45544C11.1534 3.67507 11.6021 4.07311 11.8846 4.58329L11.979 4.77342L12.8238 6.65043C13.0796 7.22025 13.1626 7.85265 13.0623 8.46918C12.9621 9.0857 12.683 9.65923 12.2598 10.1186L12.0901 10.2871L10.7592 11.5286C10.5193 11.7557 10.6992 12.6349 11.5669 14.138C12.3478 15.4906 12.9833 16.1222 13.2959 16.1567H13.3508L13.4184 16.1439L16.0342 15.3439C16.3858 15.2361 16.7609 15.2318 17.1148 15.3316C17.4688 15.4314 17.7864 15.631 18.0299 15.9066L18.146 16.0533L19.8775 18.4522C20.2169 18.9224 20.386 19.4942 20.357 20.0733C20.328 20.6525 20.1027 21.2045 19.718 21.6384L19.5624 21.7992L18.8708 22.4551C18.2497 23.0432 17.4729 23.4406 16.6325 23.6001C15.7922 23.7596 14.9237 23.6744 14.1304 23.3547C11.6613 22.3594 9.4181 20.0855 7.38031 16.5561C5.3387 13.0177 4.49015 9.9336 4.86913 7.29226C4.98381 6.49382 5.31259 5.74134 5.82056 5.11475C6.32854 4.48815 6.99673 4.01083 7.75418 3.73347L8.00045 3.65181L8.91535 3.37619Z" fill="black"/>
</svg>
