<svg width="20" height="21" viewBox="0 0 20 21" fill="none" xmlns="http://www.w3.org/2000/svg">
<path d="M10.0001 10.0833C9.44755 10.0833 8.91764 9.8638 8.52694 9.4731C8.13624 9.0824 7.91675 8.55249 7.91675 7.99996C7.91675 7.44743 8.13624 6.91752 8.52694 6.52682C8.91764 6.13612 9.44755 5.91663 10.0001 5.91663C10.5526 5.91663 11.0825 6.13612 11.4732 6.52682C11.8639 6.91752 12.0834 7.44743 12.0834 7.99996C12.0834 8.27355 12.0295 8.54446 11.9248 8.79722C11.8201 9.04998 11.6667 9.27964 11.4732 9.4731C11.2798 9.66655 11.0501 9.82001 10.7973 9.92471C10.5446 10.0294 10.2737 10.0833 10.0001 10.0833ZM10.0001 2.16663C8.45299 2.16663 6.96925 2.78121 5.87529 3.87517C4.78133 4.96913 4.16675 6.45286 4.16675 7.99996C4.16675 12.375 10.0001 18.8333 10.0001 18.8333C10.0001 18.8333 15.8334 12.375 15.8334 7.99996C15.8334 6.45286 15.2188 4.96913 14.1249 3.87517C13.0309 2.78121 11.5472 2.16663 10.0001 2.16663Z" fill="#515151"/>
</svg>
