<svg width="26" height="27" viewBox="0 0 26 27" fill="none" xmlns="http://www.w3.org/2000/svg">
<path d="M12.7598 12.9684C12.0548 12.9684 11.3786 12.6883 10.8801 12.1898C10.3815 11.6912 10.1014 11.0151 10.1014 10.31C10.1014 9.60498 10.3815 8.92882 10.8801 8.43028C11.3786 7.93175 12.0548 7.65167 12.7598 7.65167C13.4648 7.65167 14.141 7.93175 14.6395 8.43028C15.1381 8.92882 15.4181 9.60498 15.4181 10.31C15.4181 10.6591 15.3494 11.0048 15.2158 11.3273C15.0822 11.6499 14.8864 11.9429 14.6395 12.1898C14.3927 12.4366 14.0996 12.6324 13.7771 12.766C13.4546 12.8996 13.1089 12.9684 12.7598 12.9684ZM12.7598 2.86664C10.7857 2.86664 8.89243 3.65085 7.49652 5.04675C6.10062 6.44266 5.31641 8.33591 5.31641 10.31C5.31641 15.8926 12.7598 24.1334 12.7598 24.1334C12.7598 24.1334 20.2032 15.8926 20.2032 10.31C20.2032 8.33591 19.419 6.44266 18.0231 5.04675C16.6272 3.65085 14.7339 2.86664 12.7598 2.86664Z" fill="black"/>
</svg>
